<!-- Generated by IcoMoon.io -->
<svg version="1.1" xmlns="http://www.w3.org/2000/svg" width="24" height="24" viewBox="0 0 24 24">
<title>grooming-icon</title>
<path d="M18.33 3.37h-2.783v0.563h1.627v0.788h-1.627v0.563h1.627v0.844h-1.627v0.563h1.627v0.844h-1.627v0.563h1.627v0.844h-1.627v0.563h1.627v0.844h-1.627v0.563h1.627v0.844h-1.627v0.563h1.627v0.844h-1.627v0.563h1.627v0.844h-1.627v0.563h1.627v0.844h-1.627v0.563h1.627v0.844h-1.627v0.563h1.627v0.844h-1.627v0.563h1.627v0.724h-1.627v0.563h2.783c0.725 0 1.315-0.59 1.315-1.315v-14.631c-0-0.725-0.59-1.315-1.315-1.315zM19.083 19.317c0 0.415-0.338 0.753-0.753 0.753h-0.594v-16.137h0.594c0.415 0 0.753 0.338 0.753 0.753v14.631z"></path>
<path d="M11.567 15.862c-0.708 0-1.321 0.417-1.605 1.018l-0.537-2.126-0.092-0.448c0.354-0.184 0.596-0.554 0.596-0.979 0-0.253-0.086-0.486-0.23-0.673 0.568-0.615 0.97-1.368 1.164-2.184l0.998-4.964-1.203-2.584-1.837 8.905-1.837-8.904-1.203 2.584 0.998 4.964c0.195 0.818 0.598 1.573 1.169 2.189-0.142 0.186-0.226 0.417-0.226 0.668 0 0.422 0.239 0.79 0.588 0.975l-0.146 0.707-0.442 1.844c-0.29-0.587-0.895-0.991-1.592-0.991-0.979 0-1.775 0.796-1.775 1.775v1.664c0 0.979 0.796 1.775 1.775 1.775s1.775-0.796 1.775-1.775v-0.8l0.785-3.276 0.003 0.001 0.019-0.094 0.111-0.462 0.053 0.209 0.072 0.347 0.015-0.003 0.829 3.28v0.798c0 0.979 0.796 1.775 1.775 1.775s1.775-0.796 1.775-1.775v-1.664c0-0.979-0.797-1.775-1.775-1.775zM7.343 19.302c0 0.669-0.544 1.213-1.213 1.213s-1.213-0.544-1.213-1.213v-1.664c0-0.669 0.544-1.213 1.213-1.213s1.213 0.544 1.213 1.213v1.664zM10.866 4.701l0.408 0.876-0.959 4.769c-0.17 0.71-0.517 1.365-1.007 1.904l1.558-7.549zM7.327 10.345l-0.959-4.769 0.408-0.876 1.558 7.549c-0.49-0.539-0.837-1.195-1.007-1.904zM8.979 13.846c-0.049 0.014-0.1 0.023-0.154 0.023-0.057 0-0.111-0.009-0.163-0.025-0.088-0.028-0.166-0.078-0.228-0.143-0.093-0.097-0.15-0.228-0.15-0.373 0-0.091 0.023-0.177 0.063-0.252 0.058-0.11 0.152-0.197 0.267-0.246 0.065-0.028 0.136-0.043 0.211-0.043 0.071 0 0.139 0.014 0.202 0.039 0.117 0.047 0.214 0.134 0.274 0.244 0.042 0.077 0.066 0.165 0.066 0.258 0 0.148-0.060 0.283-0.157 0.381-0.063 0.064-0.142 0.112-0.23 0.138zM12.78 19.302c0 0.669-0.544 1.213-1.213 1.213s-1.213-0.544-1.213-1.213v-1.664c0-0.669 0.544-1.213 1.213-1.213s1.213 0.544 1.213 1.213v1.664z"></path>
</svg>
