<!-- Generated by IcoMoon.io -->
<svg version="1.1" xmlns="http://www.w3.org/2000/svg" width="24" height="24" viewBox="0 0 24 24">
<title>shampoo-icon</title>
<path d="M4.244 12.258h0.563v0.882h-0.563v-0.882z"></path>
<path d="M4.244 9.888h0.563v0.868h-0.563v-0.868z"></path>
<path d="M2.899 11.233h0.868v0.563h-0.868v-0.563z"></path>
<path d="M5.254 11.233h0.897v0.563h-0.897v-0.563z"></path>
<path d="M15.97 3.62h-5.456v0.061h-0.002v3.178h-0.034c-0.755 0-1.37 0.614-1.37 1.37v0.114h-1.655v12.038h9.007v-12.038h-1.655v-0.114c0-0.755-0.614-1.37-1.37-1.37h-0.034v-1.511h1.972c0.243 0 0.441 0.198 0.441 0.441v0.504h1.877v-0.949c0-0.95-0.773-1.724-1.724-1.724zM11.075 5.347v-1.104h1.766v2.615h-1.766v-1.511zM15.899 19.817h-7.882v-8.916c0.266 0.044 0.434 0.148 0.622 0.264 0.279 0.174 0.596 0.37 1.205 0.37s0.925-0.197 1.205-0.37c0.247-0.153 0.46-0.286 0.908-0.286s0.661 0.132 0.908 0.286c0.28 0.174 0.596 0.37 1.205 0.37s0.925-0.197 1.205-0.37c0.188-0.117 0.358-0.222 0.627-0.265v8.917zM14.806 8.905h1.093v1.428c-0.431 0.050-0.691 0.21-0.923 0.355-0.247 0.153-0.46 0.286-0.908 0.286s-0.661-0.132-0.908-0.286c-0.28-0.174-0.596-0.37-1.205-0.37s-0.925 0.197-1.205 0.37c-0.247 0.153-0.46 0.286-0.908 0.286s-0.661-0.132-0.908-0.286c-0.232-0.144-0.49-0.304-0.918-0.354v-1.428h6.789zM13.436 7.421c0.445 0 0.807 0.362 0.807 0.807v0.114h-4.572v-0.114c0-0.445 0.362-0.807 0.807-0.807h2.958zM17.131 5.73h-0.754c-0.030-0.526-0.468-0.945-1.002-0.945h-1.972v-0.602h2.567c0.64 0 1.161 0.521 1.161 1.161v0.386z"></path>
<path d="M14.065 15.822c-0.286-0.201-0.546-0.478-0.77-0.825-0.293-0.452-0.788-0.722-1.324-0.722s-1.030 0.27-1.324 0.722c-0.225 0.346-0.484 0.624-0.77 0.825-0.422 0.296-0.674 0.779-0.674 1.291 0 0.87 0.708 1.577 1.577 1.577h2.382c0.87 0 1.577-0.707 1.577-1.577 0-0.512-0.252-0.995-0.674-1.291zM13.162 18.128h-2.382c-0.559 0-1.015-0.455-1.015-1.015 0-0.329 0.163-0.64 0.435-0.831 0.346-0.243 0.655-0.572 0.919-0.979 0.189-0.292 0.508-0.466 0.852-0.466s0.662 0.174 0.852 0.466c0.264 0.407 0.573 0.736 0.919 0.979 0.272 0.191 0.435 0.502 0.435 0.831 0 0.559-0.455 1.015-1.015 1.015z"></path>
<path d="M10.207 14.766v-0.562c0-0.425-0.346-0.77-0.77-0.77s-0.77 0.346-0.77 0.77v0.562c0 0.425 0.346 0.77 0.77 0.77s0.77-0.346 0.77-0.77zM9.229 14.766v-0.562c0-0.115 0.093-0.208 0.208-0.208s0.208 0.093 0.208 0.208v0.562c0 0.115-0.093 0.208-0.208 0.208s-0.208-0.093-0.208-0.208z"></path>
<path d="M14.479 13.434c-0.425 0-0.77 0.346-0.77 0.77v0.562c0 0.425 0.346 0.77 0.77 0.77s0.77-0.346 0.77-0.77v-0.562c0-0.425-0.346-0.77-0.77-0.77zM14.686 14.766c0 0.115-0.093 0.208-0.208 0.208s-0.208-0.093-0.208-0.208v-0.562c0-0.115 0.093-0.208 0.208-0.208s0.208 0.093 0.208 0.208v0.562z"></path>
<path d="M11.027 14.179c0.425 0 0.77-0.346 0.77-0.77v-0.562c0-0.425-0.346-0.77-0.77-0.77s-0.77 0.346-0.77 0.77v0.562c0 0.425 0.346 0.77 0.77 0.77zM10.819 12.846c0-0.115 0.093-0.208 0.208-0.208s0.208 0.093 0.208 0.208v0.562c0 0.114-0.093 0.208-0.208 0.208s-0.208-0.093-0.208-0.208v-0.562z"></path>
<path d="M12.888 14.179c0.425 0 0.77-0.346 0.77-0.77v-0.562c0-0.425-0.346-0.77-0.77-0.77s-0.77 0.346-0.77 0.77v0.562c0 0.425 0.346 0.77 0.77 0.77zM12.681 12.846c0-0.115 0.093-0.208 0.208-0.208s0.208 0.093 0.208 0.208v0.562c0 0.114-0.093 0.208-0.208 0.208s-0.208-0.093-0.208-0.208v-0.562z"></path>
<path d="M19.194 18.084h0.563v0.882h-0.563v-0.882z"></path>
<path d="M19.194 15.714h0.563v0.868h-0.563v-0.868z"></path>
<path d="M17.849 17.059h0.868v0.563h-0.868v-0.563z"></path>
<path d="M20.204 17.059h0.897v0.563h-0.897v-0.563z"></path>
</svg>
